<svg width="18" height="14" fill="none" xmlns="http://www.w3.org/2000/svg"><g fill="#079FC2"><path d="M13.67 2.15a.527.527 0 00-.745.747 4.12 4.12 0 011.217 2.932 4.121 4.121 0 01-1.217 2.933.527.527 0 10.746.746 5.168 5.168 0 001.526-3.679 5.169 5.169 0 00-1.526-3.678z"/><path d="M15.655.167a.527.527 0 00-.746.746 6.91 6.91 0 012.036 4.916 6.91 6.91 0 01-2.036 4.917.527.527 0 00.746.746A7.957 7.957 0 0018 5.83c0-2.138-.833-4.15-2.345-5.662z"/><path fill-rule="evenodd" clip-rule="evenodd" d="M9.5 1.996v1.778a2.108 2.108 0 011.576 2.037c0 .978-.671 1.802-1.577 2.037v1.777a.527.527 0 01-.725.49L4.63 8.44h-.257l-1.899 4.243a.527.527 0 01-1.009-.215V8.44H.527A.527.527 0 010 7.913V3.708c0-.29.236-.527.527-.527H4.63l4.144-1.674a.527.527 0 01.725.489zM2.52 8.44V10l.697-1.559H2.52zm2.41-1.016a.526.526 0 00-.198-.038H1.055v-3.15h3.677a.527.527 0 00.197-.039l3.515-1.42v6.067L4.93 7.424zm4.569-2.52v1.814a1.05 1.05 0 000-1.814z"/></g></svg>