<svg width="15" height="14" fill="none" xmlns="http://www.w3.org/2000/svg"><g fill="#079FC2"><path d="M14.383.195a.657.657 0 00-.93 0L.774 12.875a.657.657 0 10.929.93l12.68-12.68a.657.657 0 000-.93z"/><path fill-rule="evenodd" clip-rule="evenodd" d="M.576 3.128c0-1.72 1.4-3.121 3.12-3.121 1.722 0 3.122 1.4 3.122 3.121S5.418 6.25 3.697 6.25.576 4.85.576 3.13zm1.314 0c0 .996.81 1.807 1.807 1.807a1.81 1.81 0 001.807-1.807 1.81 1.81 0 00-1.807-1.807A1.81 1.81 0 001.89 3.128zm6.444 7.748c0-1.721 1.4-3.121 3.12-3.121 1.721 0 3.122 1.4 3.122 3.12 0 1.722-1.4 3.122-3.121 3.122s-3.121-1.4-3.121-3.121zm1.314 0c0 .996.81 1.807 1.807 1.807a1.81 1.81 0 001.807-1.807 1.81 1.81 0 00-1.807-1.807 1.81 1.81 0 00-1.807 1.807z"/></g></svg>