<svg width="40" height="48" fill="none" xmlns="http://www.w3.org/2000/svg"><g fill-rule="evenodd" clip-rule="evenodd" fill="#74CFB7"><path d="M19.815 0c5.305 0 10.297 2.08 13.99 5.825 7.75 7.697 7.75 20.283-.052 27.98L20.907 46.651c-.26.312-.676.468-1.144.468a1.53 1.53 0 01-1.144-.468L5.773 33.805C2.08 30.061 0 25.12 0 19.815S2.08 9.517 5.825 5.773C9.517 2.08 14.51 0 19.815 0zm-6.97 19.607a6.97 6.97 0 1013.94 0 6.97 6.97 0 00-13.94 0z"/><path d="M18.75 30c5.385 0 9.75-4.365 9.75-9.75s-4.365-9.75-9.75-9.75S9 14.865 9 20.25 13.365 30 18.75 30z"/></g></svg>