<svg width="17" height="15" fill="none" xmlns="http://www.w3.org/2000/svg"><g fill="#079FC2"><path fill-rule="evenodd" clip-rule="evenodd" d="M1.21 14.783h14.756c.315 0 .56-.246.56-.56V1.708a.555.555 0 00-.56-.56H13.19V.67a.555.555 0 00-.56-.56.555.555 0 00-.562.56v.479H5.205V.67a.555.555 0 00-.561-.56.555.555 0 00-.56.56v.479H1.21a.555.555 0 00-.56.56v12.527c0 .3.26.547.56.547zM1.771 2.27h2.311v.3c0 .315.246.562.56.562a.556.556 0 00.562-.561v-.3h6.865v.3c0 .314.246.56.56.56.315 0 .56-.246.56-.56v-.3h2.23V3.72H1.771V2.27zm13.634 2.571H1.771v8.834h13.634V4.841z"/><path d="M12.63 7.412H4.56a.555.555 0 00-.56.56c0 .315.246.561.56.561h8.07c.314 0 .56-.246.56-.56a.555.555 0 00-.56-.561zM8.595 10.12H4.561a.555.555 0 00-.56.56c0 .315.245.561.56.561h4.034c.315 0 .56-.246.56-.56a.555.555 0 00-.56-.561z"/></g></svg>