<svg width="16" height="15" fill="none" xmlns="http://www.w3.org/2000/svg"><g fill="#fff"><path fill-rule="evenodd" clip-rule="evenodd" d="M.565 15h14.87a.563.563 0 00.565-.573V1.636a.563.563 0 00-.565-.574h-2.798V.573A.563.563 0 0012.072 0a.563.563 0 00-.565.573v.49H4.59v-.49A.563.563 0 004.024 0a.563.563 0 00-.565.573v.49H.565A.563.563 0 000 1.635V14.44c0 .307.262.559.565.559zM1.13 2.209h2.33v.307c0 .322.247.573.564.573a.563.563 0 00.565-.573V2.21h6.918v.307c0 .322.248.573.565.573a.563.563 0 00.565-.573V2.21h2.247v1.48H1.13V2.209zm13.74 2.628H1.13v9.03h13.74v-9.03z"/><path d="M11.45 7h-7.9c-.31 0-.55.22-.55.5s.241.5.55.5h7.9c.309 0 .55-.22.55-.5s-.241-.5-.55-.5zm-3.994 3H3.544c-.305 0-.544.22-.544.5s.239.5.544.5h3.912c.305 0 .544-.22.544-.5s-.239-.5-.544-.5z"/></g></svg>