<svg width="19" height="18" fill="none" xmlns="http://www.w3.org/2000/svg"><g fill-rule="evenodd" clip-rule="evenodd" fill="#079FC2"><path d="M.615 9c0-4.962 4.038-9 9-9 4.963 0 9 4.038 9 9s-4.037 9-9 9c-4.962 0-9-4.038-9-9zM1.74 9c0 4.342 3.534 7.875 7.875 7.875 4.342 0 7.875-3.533 7.875-7.875 0-4.343-3.533-7.875-7.875-7.875C5.274 1.125 1.74 4.657 1.74 9z"/><path d="M9.053 4.5h2.812c1.241 0 2.25 1.01 2.25 2.25S13.106 9 11.865 9h-2.25v1.125h1.688a.563.563 0 010 1.125H9.615v1.688a.563.563 0 01-1.125 0V11.25H6.803a.563.563 0 010-1.125H8.49V5.062c0-.31.252-.562.563-.562zm.562 3.375h2.25a1.126 1.126 0 000-2.25h-2.25v2.25z"/></g></svg>